<svg width="849.9999999999999" height="901.5199999999999" xmlns="http://www.w3.org/2000/svg" xmlns:xlink="http://www.w3.org/1999/xlink" data-name="Layer 1">
 <defs>
  <linearGradient y2="0.00028" x2="0.49997" y1="1.00013" x1="0.49997" id="e151d6ee-b0bf-4b5d-8ce9-000e8108dac8">
   <stop stop-opacity="0.25" stop-color="gray" offset="0"/>
   <stop stop-opacity="0.12" stop-color="gray" offset="0.54"/>
   <stop stop-opacity="0.1" stop-color="gray" offset="1"/>
  </linearGradient>
  <linearGradient xlink:href="#e151d6ee-b0bf-4b5d-8ce9-000e8108dac8" y2="535.35" x2="400.84" y1="535.35" x1="178.62" id="e2a6fc7a-3d7b-4d78-8350-c6ea621e07cc"/>
 </defs>
 <title>winners</title>
 <g>
  <title>Layer 1</title>
  <path id="svg_3" fill="url(#e151d6ee-b0bf-4b5d-8ce9-000e8108dac8)" d="m844.75558,716.14317a11.14,11.14 0 0 0 -4.88,-2.14c-1.87,-0.43 -3.78,-0.7 -5.68,-1l-24.62,-3.55a29,29 0 0 0 -7.54,-0.4a9.57,9.57 0 0 0 -6.56,3.4a5.11,5.11 0 0 0 -1.14,3.2a8.44,8.44 0 0 0 1.12,3.32a11.1,11.1 0 0 1 0.61,1.47a33.6,33.6 0 0 0 0.88,3.35a2.84,2.84 0 0 0 0.42,0.66a1.09,1.09 0 0 1 0,0.17c-0.27,1.38 0.6,2.82 0.21,4.15c-0.34,1.14 -1.45,1.83 -2.15,2.78a4.18,4.18 0 0 0 -0.1,4.61c0.75,1.16 2.11,1.95 2.5,3.28c0.51,1.75 -0.87,3.44 -2.1,4.79a74.23,74.23 0 0 0 -6.26,7.89a4.89,4.89 0 0 0 -1,2.35c-0.11,1.74 1.56,3.27 1.27,5c-0.23,1.36 -1.56,2.19 -2.71,3c-4.25,2.8 -7.66,7.3 -8,12.39a43.4,43.4 0 0 0 -9.68,-22c-1.43,-1.72 -3,-3.45 -3.59,-5.63c-0.22,-0.87 -0.26,-1.8 -0.56,-2.64c-1,-2.65 -4.18,-3.79 -5.57,-6.23c-1,-1.72 -1,-3.93 -2.24,-5.44s-3.19,-1.85 -4.26,-3.31a21.18,21.18 0 0 1 -1.36,-3.08a6.73,6.73 0 0 0 -1.85,-2.22a5.4,5.4 0 0 0 -0.46,-0.33a1.59,1.59 0 0 0 0.53,-1.18c0,-1.17 -1.16,-1.94 -2.17,-2.52c-1.3,-0.74 -2.57,-1.54 -3.81,-2.37a8.91,8.91 0 0 0 3.41,-2.79a9.17,9.17 0 0 0 1.3,-6a7.57,7.57 0 0 0 -1.79,-4.59c-0.63,-0.67 -1.42,-1.15 -2.08,-1.78c-1.71,-1.67 -2.29,-4.14 -3,-6.42c-0.94,-3 -2.41,-6.15 -5.15,-7.74c-1.32,-0.77 -2.86,-1.13 -4.15,-1.94s-2.37,-2.34 -1.92,-3.81c0.3,-1 1.23,-1.69 1.86,-2.54a5.06,5.06 0 0 0 -1.27,-7c-0.74,-0.47 -1.65,-0.88 -1.8,-1.74a3.18,3.18 0 0 1 -2.32,-2.46a9.48,9.48 0 0 1 0,-3.56q0.39,-2.79 0.77,-5.56a3.62,3.62 0 0 0 2.78,0a24.48,24.48 0 0 0 3,3.92a39.17,39.17 0 0 1 7,12.15c0.57,1.6 1.15,3.39 2.63,4.24c0.51,0.29 1.09,0.44 1.59,0.75a5.94,5.94 0 0 1 1.56,1.6c1.2,1.59 2.4,3.17 3.59,4.76l0.06,0.24a1.4,1.4 0 0 0 0.16,0.4a1.33,1.33 0 0 0 0.86,0.44c3.68,0.85 7.81,1.63 11,-0.38c2.88,-1.8 4.14,-5.36 6.58,-7.74c1.73,-1.69 4.18,-3 4.67,-5.38a17.7,17.7 0 0 1 -1.72,-0.63c0.5,-0.5 1,-1.08 1.68,-1.74a21.18,21.18 0 0 0 2.66,-3.17a20.43,20.43 0 0 0 2,-4.48q2.89,-8.24 5.8,-16.49c0.92,-2.6 1.84,-5.22 3,-7.75c1.2,-2.74 2.62,-5.37 3.93,-8.06a107,107 0 0 0 7.78,-21.9a8,8 0 0 0 0.31,-3.19c-0.28,-1.73 -1.59,-3.09 -2.84,-4.32a20.84,20.84 0 0 0 -4.26,-3.53a7,7 0 0 0 -5.34,-0.86c-2.56,0.75 -4.17,3.37 -4.76,6s-0.37,5.34 -0.62,8c-0.36,3.85 -1.68,7.57 -2,11.43c-0.17,2.23 0,4.49 -0.27,6.72a24.52,24.52 0 0 1 -3,8.28a53.6,53.6 0 0 1 -12.93,15.94c-0.61,0.51 -1.24,1 -1.84,1.55c0,-0.43 0.07,-0.87 0.13,-1.3a7.84,7.84 0 0 0 -1.27,0.45a3.81,3.81 0 0 0 -0.15,-1.5c-0.8,-2.39 -4.36,-3 -5,-5.43a11.1,11.1 0 0 1 -0.17,-1.82c-0.21,-2.13 -1.66,-3.93 -2.16,-6c-0.46,-1.91 -0.11,-4 -1,-5.77a16.13,16.13 0 0 0 -2.66,-3a11.77,11.77 0 0 1 -2.53,-4.77c-0.13,-0.49 -0.25,-1 -0.39,-1.49a6.82,6.82 0 0 0 -0.36,-3.29c-0.91,-2.26 -3.26,-3.71 -4.11,-6c-0.66,-1.78 -0.37,-4 -1.62,-5.38a5.85,5.85 0 0 0 -2.37,-1.43a52.73,52.73 0 0 0 -14.27,-3.37c-2.74,-0.25 -5.76,-0.39 -7.72,-2.32c-2.29,-2.24 -2.4,-6.27 -5.08,-8c-2.36,-1.53 -5.7,-0.4 -7.53,1.75a9.53,9.53 0 0 0 -0.76,1a10.7,10.7 0 0 1 -0.21,-4.1c0,-0.34 0.07,-0.69 0.1,-1a20,20 0 0 0 10.84,-8.56s0,0 0,0.06l0.12,0.31c0.29,0.73 0.75,1.43 1.43,1.51l0,0a2,2 0 0 0 1.24,-0.45a10.27,10.27 0 0 0 1.66,-1.44q0.38,-0.42 0.72,-0.87a11.33,11.33 0 0 0 1.18,-2a11.88,11.88 0 0 0 1,-3.35c0.18,-1.16 0.2,-2.35 0.4,-3.51a21.61,21.61 0 0 1 0.73,-2.65c0.1,-0.29 0.2,-0.58 0.29,-0.87s0.22,-0.68 0.32,-1a23.17,23.17 0 0 0 1,-6.34q0,-0.54 0,-1.08a10.55,10.55 0 0 0 -3.36,-7.45c-1.72,-1.41 -4,-2 -5.26,-3.91c-0.82,-1.28 -1,-2.93 -1.48,-4.43a10,10 0 0 0 -7.86,-7.07a8.75,8.75 0 0 0 -6.22,1.71l0,0l-0.14,0.11l0,0a10,10 0 0 0 -2.48,2.76a8.25,8.25 0 0 1 -3.52,-2c-1,-0.93 -1.77,-2.1 -2.78,-3a7.15,7.15 0 0 0 -7.12,-1.5a8.51,8.51 0 0 0 -5.09,5.83c-0.55,2.06 -0.45,4.43 -1.6,6.15c-0.89,1.34 -2.35,2 -3.37,3.22a6.06,6.06 0 0 0 -1.26,2.67l0,0a7.23,7.23 0 0 0 -0.17,1.67l0,0c0,0.25 0,0.5 0.06,0.74c0,0 0,0.08 0,0.12a5.29,5.29 0 0 0 0.17,0.81l0,0a7,7 0 0 0 1.49,2.74a6.58,6.58 0 0 0 2.41,1.74a9.76,9.76 0 0 0 1.16,0.37l1.19,0.27l0.42,0.1a19.94,19.94 0 0 0 -0.56,17.61c0,0.28 -0.07,0.56 -0.1,0.84a69.17,69.17 0 0 0 0.52,11.79c0.14,1.55 0.22,3.26 -0.73,4.49a8.52,8.52 0 0 1 -1.45,1.29c0.54,-0.7 1.09,-1.39 1.65,-2.08c-1.41,-1.42 -3.64,-1.6 -5.64,-1.46a26.13,26.13 0 0 0 -11,3.36c-2.24,1.29 -4.54,3 -7.1,2.7c-1.51,-0.17 -3,-1 -4.47,-0.6a9.06,9.06 0 0 0 -2.29,1.36a3.1,3.1 0 0 1 -1.88,0.58c-1.57,-1.93 -4,-3.24 -5.88,-4.81a46.33,46.33 0 0 1 -5.85,-6.27c-3.24,-3.91 -6.47,-7.83 -9.65,-11.78c-2.68,-3.32 -5.43,-6.91 -5.9,-11.16a10.93,10.93 0 0 1 -0.07,-1.27a32.3,32.3 0 0 1 0.76,-6a3,3 0 0 0 0,-1.45c-0.3,-1 -1.45,-1.37 -2.44,-1.59l0,0c0.13,-0.77 0.22,-1.56 0.27,-2.31c0.56,-8.6 -0.05,-17.34 1.77,-25.76c0.69,-3.24 1.82,-6.52 4.15,-8.87c3.65,-3.69 9.76,-4.58 12.56,-8.95c2.34,-3.64 1.41,-8.79 -1.53,-12s-7.47,-4.52 -11.78,-4.36a6.08,6.08 0 0 0 -3.43,0.92a7.29,7.29 0 0 0 -2.08,3.16l-4.29,10.43a63.08,63.08 0 0 0 -3.14,8.38c-1.2,4.38 -1.47,9 -2.42,13.42c0,3.4 -2.19,7.64 -3.39,10.77c-1.34,3.52 -2.79,7 -4,10.59c-0.3,0.9 -1.35,3.57 -2,6a3.66,3.66 0 0 0 -0.68,0.51a18.09,18.09 0 0 0 -1.42,2.11c-0.91,1.2 -2.39,1.84 -3.39,3s-1.21,3.29 0.18,3.87a4.08,4.08 0 0 0 0.87,0.19a3.38,3.38 0 0 1 0.54,0.09c1.5,0.42 2.09,2.31 1.87,3.87s-1,3 -1.13,4.56c-0.27,2.76 1.35,5.33 2.91,7.65a65.94,65.94 0 0 0 5.34,7.19c1.41,1.58 3,3 4.42,4.52c5.41,5.56 9.71,12.06 14.57,18.1a40.13,40.13 0 0 0 5.93,6.22a44.65,44.65 0 0 0 4.49,3.09l8.36,5.3a9.16,9.16 0 0 0 3.16,1.49a4.2,4.2 0 0 0 1.12,0c0.05,0.25 0.09,0.49 0.15,0.74c0.65,2.62 2.08,5 2.24,7.67s-0.08,5.4 0.11,8.1c0.18,2.49 0.73,5 0.87,7.45c0.28,4.72 -0.88,9.38 -2,14c-1.69,6.76 -2.71,13.66 -6,19.79c-0.92,1.69 -2,3.41 -2,5.34c0,0.23 0,0.47 0.06,0.7l0,0l-1.5,0.85c-0.44,0.25 -0.88,0.5 -1.28,0.76c-1.9,1.24 -3.93,2.61 -4.71,4.75c-0.63,1.73 -0.34,3.71 -1.1,5.39a2.39,2.39 0 0 1 -0.12,0.22c-0.8,1.56 -2.39,2.72 -2.75,4.43l0,0c-0.27,1.31 0.25,2.7 0,4c0,0 0,0 0,0.05a14.47,14.47 0 0 0 -0.54,2a2.39,2.39 0 0 0 0.06,0.66a3.81,3.81 0 0 0 1.2,1.95a8,8 0 0 0 1.17,0.93q0.64,0.42 1.32,0.78l0.26,0.14c0.38,0.2 0.76,0.39 1.15,0.57l0.26,0.11c0.45,0.2 0.91,0.38 1.37,0.54l0.32,0.1c0.36,0.12 0.73,0.23 1.1,0.32l0.25,0.08l0.23,0.05l1,0.21l0.37,0.07q0.66,0.11 1.35,0.18l0.4,0c0.34,0 0.67,0.05 1,0.06l0.47,0c0.35,0 0.69,0 1,0l0.36,0c0.47,0 0.94,-0.07 1.41,-0.13l0.15,0c0.42,-0.06 0.84,-0.13 1.26,-0.22l0.32,-0.07c0.39,-0.09 0.78,-0.18 1.17,-0.3l0.21,-0.06c0.47,-0.14 0.94,-0.29 1.4,-0.47a36.74,36.74 0 0 0 4.62,-2.29c1,-0.55 2,-1.11 3,-1.62a23.29,23.29 0 0 1 2.28,-1a12.87,12.87 0 0 1 6,-1a23.5,23.5 0 0 1 3,0.61c0,0.11 0,0.22 0,0.33q1.22,7.2 2.41,14.4a29.32,29.32 0 0 1 4.14,-2.49a9.21,9.21 0 0 0 -0.53,2.25a8.92,8.92 0 0 0 0,1.79c0.09,0.95 0.29,2 -0.28,2.75c-0.35,0.46 -1,0.72 -1.19,1.24a4.23,4.23 0 0 0 -0.1,1.63a2.6,2.6 0 0 1 -2.38,2.42a3.8,3.8 0 0 1 -1.51,4.46a5.28,5.28 0 0 0 -1.16,0.76a3.46,3.46 0 0 0 -0.67,1.51a26.72,26.72 0 0 1 -7.83,12.87a25.17,25.17 0 0 0 -3.87,3.78a17.21,17.21 0 0 0 -1.75,3.45q-4,9.78 -8.12,19.57c-1.52,3.65 -3,7.36 -3.48,11.29c-1.2,10.78 -10.8,19.92 -9,30.62a15,15 0 0 0 3.12,7.31c2,2.41 5,3.79 8,4.91c7.71,3 15.84,4.64 23.94,6.29l12.72,2.61a55.6,55.6 0 0 0 7.58,1.2c3.07,0.21 6.22,-0.08 9.21,0.7c1.85,0.48 3.62,1.37 5.53,1.47c1.64,0.09 3.66,-0.26 4.63,1.08s0.22,3.11 1.14,4.3c1.48,1.89 5.09,0 6.7,1.78a8.29,8.29 0 0 1 1,2.21a4,4 0 0 0 1,1.26a8.45,8.45 0 0 1 0.12,1.71a29.49,29.49 0 0 1 -1.44,6.82q-1.8,6.09 -3.59,12.19a27,27 0 0 0 -1,4.4a10.57,10.57 0 0 0 0,2.18c0.21,2.21 1.48,4.49 3.59,5.21a6.58,6.58 0 0 0 4.86,-0.6a21.48,21.48 0 0 0 4,-2.7a27.31,27.31 0 0 0 5.77,-5.94c5,-7.48 3.38,-17.6 6.89,-25.87c2.33,-5.52 6.87,-10 8.38,-15.82a6.33,6.33 0 0 0 0.12,-3.42c-0.63,-2 -2.76,-3.14 -4.75,-3.86l-0.09,0a41,41 0 0 0 -5,-1.43c-0.42,-0.09 -0.85,-0.16 -1.28,-0.23a7.85,7.85 0 0 1 -2.21,-2.88a6.7,6.7 0 0 0 -0.47,-1.73a1.8,1.8 0 0 0 -1.44,-0.8c-1,-0.1 -2.34,0.26 -3.43,0.18c-2.23,-0.16 -3.71,-2.35 -5.71,-3.36s-4.17,-0.76 -6.3,-0.61a5.83,5.83 0 0 1 -2.28,-0.14a8.57,8.57 0 0 1 -2.4,-1.65a10.06,10.06 0 0 0 -8.81,-1.77a9.6,9.6 0 0 1 -3,0.68c-1.95,-0.11 -3.33,-1.85 -4.77,-3.17c-3.94,-3.61 -9.55,-4.56 -14.33,-6.93a3.27,3.27 0 0 1 -1.72,-1.48c-0.55,-1.36 0.69,-2.72 1.81,-3.65l8.22,-6.83c9,-7.48 20.25,-13.11 24.43,-24.08a13.93,13.93 0 0 1 2,-4.11a5.58,5.58 0 0 1 1.11,-1a8.4,8.4 0 0 1 6.15,-1.2a20.77,20.77 0 0 1 7.24,3.16q5.37,3.25 10.45,7a92.45,92.45 0 0 1 9.55,7.84c5.25,5 9.62,10.93 14.51,16.32s10.48,10.42 17.27,13s15,2.47 20.83,-1.86c6.73,-5 8.89,-13.94 10.59,-22.14c3.75,-3.62 4.88,-9.13 6.71,-14c1.15,-3.09 2.62,-6 3.86,-9.08c1.48,-3.62 2.64,-7.36 3.8,-11.09a53.33,53.33 0 0 0 2.66,-11.57c0.48,-6.23 -1.19,-12.86 0.56,-18.71c2.31,-0.51 4.41,-1.81 6.68,-2.57c3.38,-1.11 7,-0.93 10.58,-0.91l0.23,0a5.46,5.46 0 0 0 3.52,-0.83c1.2,-1 1.39,-2.71 1.45,-4.26c0.14,-3.83 -0.1,-8.13 -2.97,-10.61zm-144.89,-170.58a7.43,7.43 0 0 1 -2.53,0.18l2.53,-0.18z"/>
  <path id="svg_4" fill="#be6f72" d="m703.80558,608.82317a11,11 0 0 1 -4.16,2.21l-7.09,2.54c-3.85,1.38 -7.87,2.77 -11.93,2.27c-2.27,-0.28 -12,-1.71 -13.47,-3.48c-2.24,-2.74 5.61,-6.77 8.29,-9.08a11.34,11.34 0 0 0 1.68,-1.48c1,-1.22 0.87,-2.93 0.73,-4.47a69,69 0 0 1 -0.52,-11.77a23.72,23.72 0 0 1 0.4,-2.79c1,-4.6 5.28,-2.92 8.66,-1.7a67.71,67.71 0 0 1 11.75,5.09a8.43,8.43 0 0 1 2.9,2.46c1.48,2.24 0.89,5.18 0.65,8c-0.21,2.19 -0.2,4.29 1.17,5.88a15.14,15.14 0 0 1 1.89,2a3.75,3.75 0 0 1 -0.95,4.32z"/>
  <path id="svg_5" fill="#be6f72" d="m605.86558,536.75317c1,-4.43 1.22,-9 2.42,-13.39a62.69,62.69 0 0 1 3.14,-8.35l4.41,-10.29a7.26,7.26 0 0 1 2.08,-3.15a6.16,6.16 0 0 1 3.43,-0.92c4.31,-0.16 8.84,1.18 11.78,4.35s3.87,8.3 1.53,11.93c-2.8,4.37 -8.91,5.25 -12.56,8.93c-2.33,2.35 -3.46,5.62 -4.15,8.85c-1.82,8.4 -1.21,17.11 -1.77,25.69c-0.18,2.67 -0.7,5.72 -3,7.1a8.75,8.75 0 0 1 -4.48,0.87l-6.56,0.11c-1.1,0 -5.09,0.69 -5.82,-0.14c-1.28,-1.45 1.64,-8.67 2.17,-10.28c1.18,-3.57 2.63,-7.05 4,-10.56c1.19,-3.13 3.38,-7.36 3.38,-10.75z"/>
  <path id="svg_6" fill="#3f3d56" d="m741.31558,850.91317c-1.51,5.78 -6.05,10.28 -8.38,15.79c-3.51,8.25 -1.93,18.34 -6.89,25.8a27.26,27.26 0 0 1 -5.77,5.95a21.43,21.43 0 0 1 -4,2.69a6.58,6.58 0 0 1 -4.86,0.6c-2.11,-0.72 -3.38,-3 -3.59,-5.2a10.49,10.49 0 0 1 0,-2.17a26.89,26.89 0 0 1 1,-4.39q1.8,-6.07 3.59,-12.16a29.44,29.44 0 0 0 1.44,-6.8c0.13,-2.52 -1.47,-5.8 -0.79,-8.15c0.31,-1.06 1.47,-2 2,-2.89a16.73,16.73 0 0 0 1.72,-4.09c0.82,-2.79 1.38,-5.77 3.1,-8.12a19.06,19.06 0 0 1 3.9,-3.65a10.34,10.34 0 0 1 3.72,-2.09a9.11,9.11 0 0 1 4,0.19a39.25,39.25 0 0 1 5,1.42l0.09,0c2,0.72 4.12,1.83 4.75,3.85a6.29,6.29 0 0 1 -0.03,3.42z"/>
  <path id="svg_7" fill="#3f3d56" d="m847.71558,727.97317c-0.06,1.55 -0.25,3.28 -1.45,4.25a5.46,5.46 0 0 1 -3.52,0.83l-0.27,0c-3.57,0 -7.2,-0.2 -10.58,0.91c-2.57,0.85 -4.93,2.41 -7.61,2.72c-3.69,0.42 -7.16,-1.6 -10.43,-3.36a103.75,103.75 0 0 0 -9.47,-4.5c-2.12,-0.87 -6.45,-1.43 -7.47,-3.75a34.14,34.14 0 0 1 -0.88,-3.34a11.1,11.1 0 0 0 -0.61,-1.47a8.45,8.45 0 0 1 -1.12,-3.31a5.11,5.11 0 0 1 1.14,-3.2a9.59,9.59 0 0 1 6.55,-3.37a29,29 0 0 1 7.54,0.4l24.62,3.54c1.9,0.27 3.81,0.54 5.68,1a11.14,11.14 0 0 1 4.88,2.14c2.91,2.44 3.15,6.73 3,10.51z"/>
  <path id="svg_8" fill="#65617d" d="m826.07558,734.37317c-3,6.33 -0.84,13.82 -1.38,20.82a53.07,53.07 0 0 1 -2.66,11.54c-1.16,3.72 -2.32,7.45 -3.8,11.06c-1.24,3 -2.71,6 -3.86,9.06c-1.83,4.88 -3,10.37 -6.71,14c-1.7,8.18 -3.86,17.12 -10.59,22.08c-5.85,4.32 -14,4.47 -20.83,1.86s-12.38,-7.61 -17.27,-13s-9.26,-11.26 -14.51,-16.28a91,91 0 0 0 -9.57,-7.83q-5.08,-3.69 -10.45,-6.94a20.93,20.93 0 0 0 -7.24,-3.15a8.4,8.4 0 0 0 -6.15,1.2a5.58,5.58 0 0 0 -1.11,1a13.76,13.76 0 0 0 -2,4.1c-4.2,10.94 -15.47,16.56 -24.47,24.02l-8.22,6.81c-1.12,0.93 -2.36,2.29 -1.81,3.64a3.27,3.27 0 0 0 1.72,1.48c4.78,2.36 10.39,3.31 14.33,6.91c1.44,1.32 2.82,3.06 4.77,3.16a9.58,9.58 0 0 0 3,-0.67a10.09,10.09 0 0 1 8.81,1.76a8.57,8.57 0 0 0 2.4,1.65a5.83,5.83 0 0 0 2.28,0.14c2.13,-0.15 4.39,-0.34 6.3,0.61s3.48,3.19 5.71,3.35c1.09,0.08 2.39,-0.28 3.43,-0.18a1.8,1.8 0 0 1 1.44,0.8a6.63,6.63 0 0 1 0.47,1.72c0.41,1.41 1.79,2.27 2.69,3.43c1.38,1.78 1.58,4.2 1.44,6.45a27.52,27.52 0 0 1 -8.76,18.42a10.84,10.84 0 0 1 -5.39,3a5,5 0 0 1 -5.34,-2.37a8.22,8.22 0 0 0 -1,-2.2c-1.61,-1.77 -5.22,0.11 -6.7,-1.78c-0.92,-1.18 -0.26,-3.07 -1.14,-4.29s-3,-1 -4.63,-1.07c-1.91,-0.1 -3.68,-1 -5.53,-1.47c-3,-0.78 -6.14,-0.49 -9.21,-0.7a55.6,55.6 0 0 1 -7.58,-1.2l-12.72,-2.6c-8.1,-1.65 -16.23,-3.32 -23.94,-6.27c-2.95,-1.12 -5.92,-2.5 -8,-4.9a15,15 0 0 1 -3.12,-7.3c-1.81,-10.67 7.79,-19.79 9,-30.54c0.43,-3.92 2,-7.62 3.48,-11.26q4.07,-9.76 8.12,-19.53a17.4,17.4 0 0 1 1.7,-3.46a25.11,25.11 0 0 1 3.87,-3.77a26.63,26.63 0 0 0 7.83,-12.84a3.46,3.46 0 0 1 0.67,-1.51a5.62,5.62 0 0 1 1.16,-0.75a3.8,3.8 0 0 0 1.51,-4.45a2.6,2.6 0 0 0 2.38,-2.42a4.18,4.18 0 0 1 0.1,-1.62c0.24,-0.52 0.84,-0.78 1.19,-1.24c0.57,-0.75 0.37,-1.8 0.28,-2.74a8.92,8.92 0 0 1 0,-1.79a9.19,9.19 0 0 1 2.68,-5.59c2.39,-2.35 5.79,-1.74 9.09,-2.3a52.07,52.07 0 0 0 9.6,-3.07a94.31,94.31 0 0 1 27.11,-6.27a59.19,59.19 0 0 1 27.38,4.36a15.57,15.57 0 0 1 3.53,2a6.69,6.69 0 0 1 1.85,2.21a20.6,20.6 0 0 0 1.36,3.07c1.07,1.46 3.09,1.93 4.26,3.31s1.27,3.71 2.24,5.42c1.39,2.44 4.61,3.57 5.57,6.22c0.3,0.84 0.34,1.76 0.56,2.63c0.54,2.18 2.16,3.9 3.59,5.62a43.21,43.21 0 0 1 9.68,22c0.32,-5.07 3.73,-9.56 8,-12.36c1.15,-0.75 2.48,-1.58 2.71,-2.94c0.29,-1.72 -1.38,-3.25 -1.27,-5a4.9,4.9 0 0 1 1,-2.34a74,74 0 0 1 6.26,-7.87c1.23,-1.35 2.61,-3 2.1,-4.78c-0.39,-1.33 -1.75,-2.11 -2.5,-3.27a4.16,4.16 0 0 1 0.1,-4.6c0.7,-0.95 1.81,-1.64 2.15,-2.77c0.39,-1.33 -0.48,-2.77 -0.21,-4.14a5.12,5.12 0 0 1 2.06,-2.67a17.13,17.13 0 0 1 4.47,-2.94c2.64,-1 5.58,-0.63 8.38,-0.24c4.68,0.65 9.93,1.65 12.57,5.57c1.69,2.45 2.55,6.17 1.29,8.79z"/>
  <path id="svg_9" opacity="0.1" d="m847.71558,727.97317c-0.06,1.55 -0.25,3.28 -1.45,4.25a5.46,5.46 0 0 1 -3.52,0.83l-0.27,0c0.41,-2.08 2.94,-3.27 3.38,-5.38a4.76,4.76 0 0 0 -1.1,-3.63c-2.14,-2.89 -5.58,-4.49 -9,-5.66a59.62,59.62 0 0 0 -30.06,-2.25a30.27,30.27 0 0 0 -7.9,2.43a25.74,25.74 0 0 0 -2.4,1.7a8.45,8.45 0 0 1 -1.12,-3.31a5.11,5.11 0 0 1 1.14,-3.2a9.59,9.59 0 0 1 6.55,-3.37a29,29 0 0 1 7.54,0.4l24.62,3.54c1.9,0.27 3.81,0.54 5.68,1a11.14,11.14 0 0 1 4.88,2.14c2.94,2.44 3.18,6.73 3.03,10.51z"/>
  <path id="svg_10" opacity="0.1" d="m741.31558,850.91317c-1.51,5.78 -6.05,10.28 -8.38,15.79c-3.51,8.25 -1.93,18.34 -6.89,25.8a27.26,27.26 0 0 1 -5.77,5.95a21.43,21.43 0 0 1 -4,2.69a6.58,6.58 0 0 1 -4.86,0.6c-2.11,-0.72 -3.38,-3 -3.59,-5.2a10.49,10.49 0 0 1 0,-2.17l0.06,0.16c0.87,2.1 2.29,4.3 4.53,4.67a6.13,6.13 0 0 0 4.62,-1.63c3.3,-2.65 5.22,-6.6 7.05,-10.41a43.3,43.3 0 0 0 3.38,-8.63c0.4,-1.7 0.59,-3.44 1,-5.14c1.9,-8.26 8.37,-15 9.8,-23.37a5.72,5.72 0 0 0 0.08,-1.75a8.84,8.84 0 0 0 -0.86,-2.18a10.8,10.8 0 0 1 -0.76,-2.42c2,0.72 4.12,1.83 4.75,3.85a6.29,6.29 0 0 1 -0.16,3.39z"/>
  <path id="svg_11" opacity="0.1" d="m726.21558,836.57317a14.49,14.49 0 0 1 -4.51,6.16a22,22 0 0 1 -9.71,4.2a9.66,9.66 0 0 1 -5,-0.06c-2.22,-0.77 -3.82,-2.85 -6.09,-3.45c-1.62,-0.44 -3.36,-0.05 -5,-0.29c-2.95,-0.41 -5.24,-2.66 -7.62,-4.46c-7.29,-5.48 -16.86,-7.25 -24.15,-12.73a2.24,2.24 0 0 1 -0.78,-0.81a2.41,2.41 0 0 1 -0.15,-1.13a23,23 0 0 1 2.19,-9.61a33.53,33.53 0 0 1 4.12,-5.87c6.53,-8 13.09,-16.06 20.91,-22.81c3.28,-2.83 6.86,-5.47 11,-6.75c2.3,-0.71 6.84,-1.38 9.64,-0.18a5.58,5.58 0 0 0 -1.11,1a13.76,13.76 0 0 0 -2,4.1c-4.21,10.95 -15.48,16.57 -24.48,24.03l-8.22,6.81c-1.12,0.93 -2.36,2.29 -1.81,3.64a3.27,3.27 0 0 0 1.72,1.48c4.78,2.36 10.39,3.31 14.33,6.91c1.44,1.32 2.82,3.06 4.77,3.16a9.58,9.58 0 0 0 3,-0.67a10.09,10.09 0 0 1 8.81,1.76a8.57,8.57 0 0 0 2.4,1.65a5.83,5.83 0 0 0 2.28,0.14c2.13,-0.15 4.39,-0.34 6.3,0.61s3.48,3.19 5.71,3.35c1.11,0.08 2.41,-0.3 3.45,-0.18z"/>
  <path id="svg_12" fill="#3f3d56" d="m634.24558,700.85317c-1.9,1.22 -3.92,2.6 -4.7,4.72c-0.64,1.73 -0.34,3.71 -1.11,5.39s-2.5,2.85 -2.88,4.65c-0.27,1.31 0.26,2.69 0,4a17.24,17.24 0 0 0 -0.55,2.08c-0.1,1.49 1.18,2.7 2.43,3.53a20.3,20.3 0 0 0 18.17,2c2.67,-1 5.08,-2.63 7.64,-3.91a15.11,15.11 0 0 1 8.23,-2c1.65,0.18 3.23,0.78 4.88,1a5.12,5.12 0 0 0 4.57,-1.36a5.7,5.7 0 0 0 1,-2.37c1.39,-5.49 0.76,-11.31 -0.56,-16.83s-3.32,-10.83 -4.73,-16.32c-1,-4.07 -1.77,-8.24 -3.44,-12.09s-4.48,-7.43 -8.41,-8.9a1.57,1.57 0 0 0 -1,-0.13a1.7,1.7 0 0 0 -0.65,0.48a30.75,30.75 0 0 0 -6.86,11.54c-1.57,4.79 -2,9.87 -3.44,14.68c-0.62,2 -1.42,4.68 -3,6.21s-3.8,2.48 -5.59,3.63z"/>
  <path id="svg_13" opacity="0.1" d="m671.95558,718.55317a5.83,5.83 0 0 1 -1.05,2.37a5.07,5.07 0 0 1 -4.57,1.35c-1.64,-0.2 -3.22,-0.81 -4.87,-1a15.08,15.08 0 0 0 -8.23,2c-2.56,1.28 -5,2.87 -7.65,3.9a20.19,20.19 0 0 1 -12.13,0.69a19.57,19.57 0 0 1 -6,-2.64c-1.26,-0.82 -2.53,-2 -2.43,-3.53a17.09,17.09 0 0 1 0.55,-2.07c0.26,-1.31 -0.26,-2.69 0,-4c0.38,-1.8 2.12,-3 2.88,-4.66s0.47,-3.65 1.1,-5.38c0.78,-2.13 2.81,-3.5 4.71,-4.73s4.16,-2.17 5.68,-3.66a5.64,5.64 0 0 0 0.53,-0.74a18,18 0 0 0 2.38,-5.51c1.47,-4.82 1.87,-9.89 3.43,-14.69a30.81,30.81 0 0 1 6.87,-11.53a1.51,1.51 0 0 1 0.64,-0.48a1.6,1.6 0 0 1 1,0.12c3.92,1.48 6.73,5.06 8.41,8.91s2.39,8 3.44,12.08c1.4,5.49 3.41,10.82 4.73,16.33s1.97,11.37 0.58,16.87z"/>
  <path id="svg_14" opacity="0.1" d="m701.69558,596.59317a20,20 0 0 1 -24.36,-11a23.72,23.72 0 0 1 0.4,-2.79c1,-4.6 5.28,-2.92 8.66,-1.7a67.71,67.71 0 0 1 11.75,5.09a8.43,8.43 0 0 1 2.9,2.46c1.48,2.21 0.89,5.15 0.65,7.94z"/>
  <circle id="svg_15" fill="#be6f72" r="20" cy="576.53317" cx="695.65558"/>
  <path id="svg_16" opacity="0.1" d="m749.92558,725.99317c0,1.66 -2.25,2.19 -3.92,2.1c-6,-0.35 -11.87,-2 -17.81,-1.5c-7.51,0.68 -14.41,4.83 -21.94,5.21c-2.9,0.15 -5.85,-0.28 -8.71,0.25c-3.7,0.69 -7,2.94 -10.77,3.26c-3.27,0.28 -6.5,-0.95 -9.77,-0.82a15.7,15.7 0 0 0 -6.53,1.86a9.19,9.19 0 0 1 2.68,-5.59c2.39,-2.35 5.79,-1.74 9.09,-2.3a52.07,52.07 0 0 0 9.6,-3.07a94.31,94.31 0 0 1 27.11,-6.27a59.19,59.19 0 0 1 27.37,4.33a15.57,15.57 0 0 1 3.53,2a1.57,1.57 0 0 1 0.07,0.54z"/>
  <path id="svg_17" fill="#b5c401" d="m686.40558,613.05317l-8.1,-3l-3.42,-1.26a16.54,16.54 0 0 0 -4.36,-1.16c-3.92,-0.3 -7.61,2.31 -9.7,5.64s-2.88,7.3 -3.55,11.17q-1.38,7.94 -2.34,15.94a104.13,104.13 0 0 0 -1.05,14.54c0.23,12.38 2.85,24.59 5.73,36.64a128.88,128.88 0 0 1 3.19,16.25c0.24,2.26 0.35,4.53 0.59,6.8c0.26,2.55 0.68,5.07 1.1,7.6l2.41,14.37c3,-2.13 6.41,-4 10.1,-4.11c3.27,-0.12 6.51,1.1 9.77,0.82c3.75,-0.31 7.07,-2.56 10.77,-3.25c2.86,-0.53 5.81,-0.11 8.72,-0.25c7.52,-0.38 14.43,-4.54 21.93,-5.21c5.95,-0.54 11.86,1.14 17.82,1.49c1.66,0.1 3.91,-0.43 3.91,-2.1c0,-1.16 -1.16,-1.93 -2.17,-2.51a107,107 0 0 1 -13.55,-9.67c-3.94,-3.12 -7.94,-6.32 -10.65,-10.54c-6.53,-10.15 -4.29,-23.88 -9.86,-34.59c-4.53,-8.7 0,-20.1 0,-29.91c0,-4.89 0,-9.84 -1.15,-14.59a61.89,61.89 0 0 0 -2.68,-7.8l-3.89,-9.85a1.61,1.61 0 0 0 -0.46,-0.75a1.53,1.53 0 0 0 -0.89,-0.27a9.38,9.38 0 0 0 -6.46,2.07c-1.83,1.49 -3,3.63 -4.8,5.18c-1.97,1.71 -4.51,3.21 -6.96,2.31z"/>
  <path id="svg_18" fill="#3f3d56" d="m699.47558,607.37317c0.64,-2.74 1.33,-5.59 3.16,-7.73s5.17,-3.27 7.53,-1.74c2.68,1.74 2.79,5.76 5.08,8c2,1.92 5,2.07 7.72,2.32a52.35,52.35 0 0 1 14.27,3.36a5.83,5.83 0 0 1 2.37,1.42c1.25,1.42 1,3.6 1.62,5.37c0.85,2.28 3.2,3.73 4.11,6c1,2.52 0,5.34 -0.84,7.93c-1.51,4.65 -2.46,9.48 -3.93,14.15s-3.56,9.27 -7,12.79c-1.52,1.56 -3.78,3 -5.78,2.07l-0.77,5.55a9.43,9.43 0 0 0 0,3.55a3.18,3.18 0 0 0 2.32,2.46c0.15,0.86 1.06,1.27 1.8,1.74a5,5 0 0 1 1.27,7c-0.63,0.85 -1.56,1.52 -1.86,2.53c-0.45,1.46 0.62,3 1.92,3.8s2.83,1.17 4.15,1.94c2.74,1.58 4.21,4.69 5.15,7.71c0.7,2.28 1.28,4.75 3,6.41c0.66,0.63 1.45,1.11 2.08,1.77a7.59,7.59 0 0 1 1.79,4.59a9.11,9.11 0 0 1 -1.3,6c-2,2.86 -5.73,3.71 -9,5c-5.31,2.18 -9.68,6.08 -14.36,9.4a15.32,15.32 0 0 1 -6.55,3.08c-3.24,0.43 -6.43,-1 -9.69,-1.13a24.06,24.06 0 0 0 -5.78,0.76l-6,1.3c0.32,-4.65 -2.24,-9.31 -3.67,-13.74c-2.7,-8.34 -3.2,-17.26 -2.56,-26s2.42,-17.36 4.18,-25.94c1.23,-6 1.11,-12.27 3,-18.1c1.77,-5.61 4.3,-11 5.23,-16.84c1.52,-9.45 -4.8,-17.46 -2.66,-26.78z"/>
  <path id="svg_19" fill="#3f3d56" d="m744.96558,625.86317a11,11 0 0 1 1.15,3.25a11.73,11.73 0 0 0 2.53,4.76a16.39,16.39 0 0 1 2.66,3c0.92,1.74 0.57,3.86 1,5.76c0.5,2.07 1.95,3.87 2.16,6a11,11 0 0 0 0.17,1.82c0.65,2.42 4.21,3 5,5.42c0.53,1.57 -0.38,3.28 -0.21,4.93a4.34,4.34 0 0 1 0.09,1.56a3.17,3.17 0 0 1 -1.14,1.46a23,23 0 0 0 -6.58,11.71a66.69,66.69 0 0 0 -1.51,13.53l-3.91,-5.17a5.94,5.94 0 0 0 -1.56,-1.6c-0.5,-0.3 -1.08,-0.45 -1.59,-0.75c-1.48,-0.84 -2.06,-2.62 -2.63,-4.22a39,39 0 0 0 -7,-12.12c-1.59,-1.87 -3.44,-3.75 -3.79,-6.18a11.38,11.38 0 0 1 0.18,-3.34c1,-6.55 2.07,-13.26 5.26,-19.07c1.49,-2.72 3.42,-5.18 4.85,-7.94c0.96,-1.83 2.31,-6.59 4.87,-2.81z"/>
  <path id="svg_20" fill="#3f3d56" d="m646.31558,632.15317a4.57,4.57 0 0 1 -0.62,2.4a3.16,3.16 0 0 1 -3.16,1a9.14,9.14 0 0 1 -3.16,-1.48q-4.18,-2.64 -8.36,-5.29a46.28,46.28 0 0 1 -4.49,-3.08a40.07,40.07 0 0 1 -5.93,-6.21c-4.86,-6 -9.16,-12.51 -14.57,-18c-1.47,-1.5 -3,-2.94 -4.42,-4.51a65.82,65.82 0 0 1 -5.34,-7.18c-1.56,-2.31 -3.18,-4.87 -2.91,-7.63c0.16,-1.56 0.91,-3 1.13,-4.55s-0.37,-3.44 -1.87,-3.86a3.38,3.38 0 0 0 -0.54,-0.09a4.08,4.08 0 0 1 -0.87,-0.19c-1.39,-0.58 -1.18,-2.73 -0.18,-3.86s2.48,-1.76 3.39,-3a18.09,18.09 0 0 1 1.42,-2.11a5.41,5.41 0 0 1 2.33,-1.17a36.06,36.06 0 0 1 17.75,-0.67c1,0.22 2.14,0.62 2.44,1.59a2.93,2.93 0 0 1 0,1.44a32.2,32.2 0 0 0 -0.76,6a10.64,10.64 0 0 0 0.07,1.26c0.47,4.24 3.22,7.83 5.9,11.14c3.18,3.94 6.41,7.85 9.65,11.75a46.17,46.17 0 0 0 5.85,6.25c2,1.66 4.59,3 6.15,5.13c1.27,1.72 0.86,4.07 1,6.14a136.28,136.28 0 0 1 0.1,18.78z"/>
  <path id="svg_21" fill="#be6f72" d="m773.31558,673.87317a21,21 0 0 0 2.66,-3.15a20.78,20.78 0 0 0 2,-4.47l5.8,-16.45c0.92,-2.6 1.84,-5.21 3,-7.74c1.2,-2.73 2.62,-5.36 3.93,-8a106.7,106.7 0 0 0 7.77,-21.75a8.06,8.06 0 0 0 0.31,-3.19c-0.28,-1.73 -1.59,-3.08 -2.84,-4.31a20.79,20.79 0 0 0 -4.26,-3.52a7,7 0 0 0 -5.34,-0.86c-2.56,0.75 -4.17,3.37 -4.76,6s-0.37,5.32 -0.62,8c-0.36,3.84 -1.68,7.55 -2,11.4c-0.17,2.23 0,4.48 -0.27,6.7a24.47,24.47 0 0 1 -3,8.27a53.69,53.69 0 0 1 -12.93,15.9a20.79,20.79 0 0 0 -3.88,3.73a12.17,12.17 0 0 0 -1.87,4.66a10.73,10.73 0 0 0 0.81,7.57c1.63,2.78 4.76,4 7.75,4.62c4.04,0.84 4.97,-0.54 7.74,-3.41z"/>
  <path id="svg_22" fill="#3f3d56" d="m695.77558,547.55317a9.33,9.33 0 0 1 9.06,-4.91a10,10 0 0 1 7.86,7.06c0.47,1.49 0.66,3.14 1.48,4.42c1.24,1.93 3.54,2.49 5.26,3.89a10.53,10.53 0 0 1 3.36,7.44a22.51,22.51 0 0 1 -1.33,8.41a26.74,26.74 0 0 0 -1,3.52c-0.2,1.16 -0.22,2.34 -0.4,3.5a11.4,11.4 0 0 1 -4.59,7.57a2,2 0 0 1 -1.24,0.45c-0.78,-0.09 -1.26,-1 -1.55,-1.82c-1.59,-4.59 -1.21,-10.2 -4.14,-13.86a15.15,15.15 0 0 0 -4.74,-3.53a6.11,6.11 0 0 0 -2.42,-0.91a6.37,6.37 0 0 0 -3.5,1.28a21.79,21.79 0 0 1 -6.92,3.06a8.5,8.5 0 0 1 -7.15,-1.54c-1.38,-1.14 -2.39,-2.85 -3.92,-3.74s-3.13,-0.84 -4.64,-1.45a6.87,6.87 0 0 1 -2.78,-10.48c1,-1.2 2.48,-1.88 3.37,-3.21c1.15,-1.72 1.05,-4.08 1.6,-6.14a8.45,8.45 0 0 1 5.09,-5.81a7.15,7.15 0 0 1 7.12,1.49c1,0.9 1.8,2.06 2.78,3a8,8 0 0 0 7.4,2"/>
  <path id="svg_23" opacity="0.1" d="m712.21558,694.74317a3.88,3.88 0 0 0 -1.06,4.24c0.22,0.47 10.54,-1.52 11.63,-1.67c2.72,-0.39 7.49,-0.2 9.32,-2.69c3.26,-4.41 -6.84,-3.43 -8.69,-3.27c-3.52,0.3 -8.52,0.78 -11.2,3.39z"/>
  <path id="svg_24" fill="#3f3d56" d="m618.33558,565.74317a32.2,32.2 0 0 0 -0.76,6c-3,0.61 -6.12,-0.39 -9,-1.39l-8.27,-2.82a2.35,2.35 0 0 0 -3.16,0.59c-1.33,1.38 -3.16,4 -5,5.55a4.08,4.08 0 0 1 -0.87,-0.19c-1.39,-0.58 -1.18,-2.73 -0.18,-3.86s2.48,-1.76 3.39,-3a18.09,18.09 0 0 1 1.42,-2.11a5.41,5.41 0 0 1 2.33,-1.17a36.06,36.06 0 0 1 17.75,-0.67c1,0.22 2.14,0.62 2.44,1.59a2.93,2.93 0 0 1 -0.09,1.48z"/>
  <path id="svg_25" opacity="0.1" d="m618.33558,565.74317a32.2,32.2 0 0 0 -0.76,6c-3,0.61 -6.12,-0.39 -9,-1.39l-8.27,-2.82a2.35,2.35 0 0 0 -3.16,0.59c-1.33,1.38 -3.16,4 -5,5.55a4.08,4.08 0 0 1 -0.87,-0.19c-1.39,-0.58 -1.18,-2.73 -0.18,-3.86s2.48,-1.76 3.39,-3a18.09,18.09 0 0 1 1.42,-2.11a5.41,5.41 0 0 1 2.33,-1.17a36.06,36.06 0 0 1 17.75,-0.67c1,0.22 2.14,0.62 2.44,1.59a2.93,2.93 0 0 1 -0.09,1.48z"/>
  <path id="svg_26" opacity="0.1" d="m693.98558,755.59317c1.44,0.48 3,1.18 3.49,2.62l-11.58,-2.94l-6,-1.53c-1.06,-0.27 -4.86,-0.58 -5.56,-1.41c-1,-1.22 2.55,-0.38 3.19,-0.29c1.94,0.29 3.88,0.59 5.81,0.94c3.64,0.65 7.14,1.72 10.65,2.61z"/>
  <path id="svg_27" opacity="0.1" d="m698.47558,765.84317c-1,-0.67 -3.87,-0.59 -5.1,-0.88c-1.8,-0.43 -3.57,-1 -5.34,-1.55c-3.59,-1.17 -7.15,-2.5 -10.84,-3.36c-0.68,-0.15 -3,-0.19 -2.89,-1.05s2.32,-1.16 2.87,-1.2c3.27,-0.24 7.35,1.29 10.39,2.38a45.79,45.79 0 0 1 10.91,5.66z"/>
  <path id="svg_28" opacity="0.1" d="m691.13558,746.45317c-3.67,-1 -7,-3.28 -10.78,-3.72a4.38,4.38 0 0 1 -2.75,-0.84a3.24,3.24 0 0 1 -0.89,-1.6c2.53,-0.13 5.47,0.94 7.77,1.95a24.45,24.45 0 0 1 3.64,1.94c0.84,0.51 2.1,1.98 3.01,2.27z"/>
  <path id="svg_29" fill="#3f3d56" d="m761.09558,656.91317a17.49,17.49 0 0 0 12.26,19.33c-0.49,2.37 -2.94,3.68 -4.67,5.37c-2.44,2.37 -3.7,5.92 -6.58,7.72c-3.21,2 -7.34,1.22 -11,0.38a1.34,1.34 0 0 1 -0.86,-0.45a1.23,1.23 0 0 1 -0.16,-0.39c-1.21,-4.43 -2,-9.16 -0.76,-13.6c1,-3.78 3.4,-7 5.32,-10.34s2.1,-6.92 6.45,-8.02z"/>
  <path id="svg_30" fill="#3f3d56" d="m671.68558,599.57317a26,26 0 0 0 -11,3.35c-2.24,1.28 -4.54,3 -7.1,2.69c-1.51,-0.17 -3,-1 -4.47,-0.6a8.77,8.77 0 0 0 -2.29,1.36a2.59,2.59 0 0 1 -2.52,0.4l-1,13.84c-0.38,5.26 -0.75,10.63 0.51,15.76c0.65,2.62 2.08,5 2.24,7.66s-0.08,5.39 0.11,8.08c0.18,2.49 0.73,4.94 0.87,7.43c0.28,4.7 -0.88,9.36 -2,13.93c-1.69,6.74 -2.71,13.63 -6,19.73c-0.92,1.69 -2,3.41 -2,5.33c0,0.24 0,0.47 0.06,0.7c-1,0.55 -1.93,1.07 -2.78,1.61c-1.9,1.23 -3.93,2.6 -4.71,4.73c-0.63,1.73 -0.34,3.71 -1.1,5.38s-2.5,2.86 -2.88,4.66c-0.27,1.31 0.25,2.69 0,4a17.09,17.09 0 0 0 -0.55,2.07c-0.1,1.5 1.17,2.71 2.43,3.53a19.57,19.57 0 0 0 6,2.64l5.97,-23.7l0,0a191.09,191.09 0 0 0 13.53,-31.47a67.66,67.66 0 0 1 3.91,-10.36a48.68,48.68 0 0 0 3,-5.88c0.91,-2.52 1,-5.25 1.44,-7.91a55.37,55.37 0 0 1 2.35,-9.13c1.08,-3.21 2.33,-6.41 2.55,-9.78c0.33,-4.82 -1.42,-9.91 0.44,-14.37a19.11,19.11 0 0 1 3.05,-4.59c2.58,-3.16 4.93,-6.47 7.51,-9.63c-1.34,-1.43 -3.57,-1.58 -5.57,-1.46z"/>
  <g id="svg_31" opacity="0.1">
   <path id="svg_32" d="m699.86558,544.26317l-1.25,0.09l-0.14,0.1a7.38,7.38 0 0 0 1.39,-0.19z"/>
   <path id="svg_33" d="m722.74558,565.02317a26.94,26.94 0 0 1 -1.28,5.84a26.74,26.74 0 0 0 -1,3.52c-0.2,1.16 -0.22,2.34 -0.4,3.5a11.4,11.4 0 0 1 -4.59,7.57a2,2 0 0 1 -1.24,0.45c-0.78,-0.09 -1.26,-1 -1.55,-1.82c-1.59,-4.59 -1.21,-10.2 -4.14,-13.86a15.15,15.15 0 0 0 -4.74,-3.53a6.11,6.11 0 0 0 -2.42,-0.91a6.37,6.37 0 0 0 -3.5,1.28a21.79,21.79 0 0 1 -6.92,3.06a8.5,8.5 0 0 1 -7.15,-1.54c-1.38,-1.14 -2.39,-2.85 -3.92,-3.74s-3.13,-0.84 -4.64,-1.45a6.83,6.83 0 0 1 -3.9,-4.46a2.87,2.87 0 0 1 -0.08,-0.38a7,7 0 0 0 0.08,3.38a6.83,6.83 0 0 0 3.9,4.46c1.51,0.61 3.21,0.62 4.64,1.45s2.54,2.6 3.92,3.74a8.5,8.5 0 0 0 7.15,1.54a21.79,21.79 0 0 0 6.92,-3.06a6.37,6.37 0 0 1 3.5,-1.28a6.11,6.11 0 0 1 2.42,0.91a15.15,15.15 0 0 1 4.67,3.56c2.93,3.66 2.55,9.27 4.14,13.86c0.29,0.83 0.77,1.73 1.55,1.82a2,2 0 0 0 1.31,-0.48a11.4,11.4 0 0 0 4.6,-7.6c0.18,-1.16 0.2,-2.34 0.4,-3.5a26.74,26.74 0 0 1 1,-3.52a22.51,22.51 0 0 0 1.33,-8.41c-0.02,-0.12 -0.04,-0.26 -0.06,-0.4z"/>
  </g>
  <path id="svg_50" fill="url(#e2a6fc7a-3d7b-4d78-8350-c6ea621e07cc)" d="m222.29518,165.47594c-2.31,-0.77 -15.91,-11.53 -16.94,-16.4s7.19,-50.24 7.19,-50.24s-0.76,0 -2,-0.15l0,-0.73l1.69,-59.6s6.93,-40 -6.16,-37.67s-4.88,37.67 -4.88,37.67s-1.49,17.94 -2.54,23.32c-1,5.19 -5.58,26.33 -2.46,32.9a7.16,7.16 0 0 0 0.38,0.68l0,0s0.52,22.55 -5.13,25.63c-5.39,2.93 -7.63,17.68 -7.82,19l-0.29,-0.12l0,0a15.67,15.67 0 0 1 -4.17,-3.81c-0.12,-0.15 -0.21,-0.31 -0.32,-0.47a22,22 0 0 0 -0.59,-29.87a22.18,22.18 0 0 0 -6.19,-4.52a14.2,14.2 0 0 0 -1.33,-5.52c-2.6,-5.56 -17,-12.83 -27.23,-13c-4.72,-0.14 -8.59,1.2 -10,4.89c-0.72,1.87 -0.5,4 -0.8,5.94c-0.6,4 -3.17,7.13 -6.47,9.62a40.56,40.56 0 0 0 -4.31,-4.15c-3.34,-2.56 -10,-11 -10,-11s-20.79,-21.53 -22.33,-27.43s-22.31,-41.33 -26.93,-35.16s15.91,33.06 15.91,33.06s3.9,9.77 6.9,13.07s26,36.7 26,36.7l1.1,2.28c-4.86,2.56 -9.3,5.82 -10.87,10.9c-2.3,7.48 2.73,15 6.21,22c6.78,13.66 7.75,31.08 -1,43.56c-7.84,11.02 -21.44,16.26 -34.17,20.84a33.63,33.63 0 0 0 21.6,7.17c-2.94,8.52 -13.36,11.34 -22.24,12.92c4.66,4.48 11.33,6.11 17.73,7.1a53.12,53.12 0 0 0 9.49,0.75l0.78,0l0.78,-0.06a27.16,27.16 0 0 0 3.23,-0.41c4.62,-0.94 9.11,-3.46 11.47,-7.54c2,-3.49 2.7,-8.25 6.33,-10a8.09,8.09 0 0 1 3,-0.71l-0.11,0c0.68,0 1.38,0 2.06,0l15.13,0.15c0.63,0 1.28,0 1.93,0c4.27,-0.1 8.83,-0.84 11,-4.37a12.12,12.12 0 0 0 1.37,-5.55c0.32,-4.79 0,-9.72 0.13,-14.55c1.29,8.79 2.64,22.49 -0.57,27.55a47,47 0 0 1 -9.38,10.17a18,18 0 0 0 -2.48,2.54c-0.49,0.35 -0.78,0.54 -0.78,0.54l-0.31,0.93a17.61,17.61 0 0 0 -2.44,5.66a3.93,3.93 0 0 0 -0.19,1.61c0.35,0.71 -2.5,3.64 -1.67,4.87c-7.12,8.35 -8.47,21 -8.47,21l-13,19.74c-6.68,17.55 -16.68,19.35 -16.68,19.35s-23.49,-15.76 -24.13,-16.53s-9.62,-4.62 -9.62,-4.62a10.18,10.18 0 0 0 -4.62,-4.22c-3.08,-1.28 -3.34,-6 -3.34,-6c-0.38,-11.15 -6.93,-12 -6.93,-12c-5.28,-0.45 -9.31,0.49 -12.41,2.21l-0.94,0.07c-4.54,0.37 -10,0.78 -16,1.18c-16.69,1.1 -20.66,11.91 -20.66,11.91s-2.05,2.31 0.64,4.81s19.91,0 20.64,-0.06a11.18,11.18 0 0 1 -3.92,-0.27c2.71,-0.1 6.44,-0.2 9.62,-0.2l0.77,0a41.62,41.62 0 0 0 -0.29,5.08c0,3.2 8.85,5.25 8.85,5.25l26.95,24s16.94,7.57 27.72,18.46s20.31,1.49 20.31,1.49c11.41,-2.82 44.24,-42.51 44.27,-42.55l0,0c0,1.16 0.69,39.76 2,47.51l0,0a5.15,5.15 0 0 0 0.29,1.15c1.54,3.33 -0.52,12.43 -1.41,16.27a45.2,45.2 0 0 0 -0.65,9.74s-12.31,47 -11.29,51.13s-6.67,23.32 -6.67,23.32l0,16l1.34,-0.07a8.64,8.64 0 0 0 -0.48,0.8l-0.09,0.17s8.21,1.79 13.73,1.28s15,4.25 15,4.25s3.21,1.52 13.09,2.16s9.88,-4.36 9.88,-4.36c-1.13,-6.81 -16.74,-9.09 -17.22,-9.16c-1.26,-0.79 -2.44,-1.65 -3.41,-2.39l-0.2,-0.16a4.28,4.28 0 0 0 0.17,-0.46c1.67,-6.8 -7.57,-9.75 -7.57,-9.75l0,-1.66c6,-3.08 7.19,-24.22 7.19,-24.22s9,-26.14 10.26,-30.5s0,-10.89 0,-10.89l0.9,-5.64s1.93,-3.84 1.93,-4.61a11.39,11.39 0 0 1 2.18,-5.38c1.41,-1.67 -1.54,-5.64 -1.54,-5.64l2.57,-6.66l0,-7.31l6,-26.52s6.29,-30.89 4.11,-41s2.57,-15.25 2.57,-15.25a12.64,12.64 0 0 1 -1.32,0.6a38.21,38.21 0 0 0 1.55,-4.26l13.5,1.67l0,0.2l4.87,0s-1.54,-19 -1.54,-26.66s5.19,-35.15 5.19,-35.15s2.31,-26.87 0,-27.64zm-59.93,-22.18c0,0.75 -0.07,1.53 -0.12,2.33l-0.27,0.41l-0.5,-0.42l-0.61,0.95l-0.18,0.09c-1.32,-0.68 -2,-4.57 -2.95,-3.73l-0.13,0.11c-0.21,-0.24 -0.42,-0.31 -0.64,-0.11l-0.2,0.17c0,-0.29 0,-0.59 0,-0.89a22.5,22.5 0 0 0 5.6,0.71c0.01,0.13 0,0.26 0,0.38zm44.9,88.48l0.29,0l-0.48,1.26c0.06,-0.42 0.12,-0.83 0.19,-1.26zm-49.29,226.77l-1.84,-0.46l1,-0.17l0.93,0.61l0.11,0.08l-0.2,-0.06zm18.8,-2.69c-0.61,-0.32 -1.23,-0.69 -1.83,-1.07c0.2,0.11 0.99,0.52 1.83,1.07z"/>
  <polygon id="svg_51" fill="#939900" points="213.90480041503906,212.88559478521347 201.79481506347656,244.44559234380722 204.7348175048828,244.44559234380722 193.3448028564453,253.52560943365097 213.90480041503906,256.0856069922447 213.90480041503906,212.88559478521347 "/>
  <polygon fill="#616602" id="svg_52" opacity="0.1" points="213.90480041503906,212.88559478521347 201.79481506347656,244.44559234380722 198.7447967529297,243.62558501958847 193.3448028564453,253.52560943365097 213.90480041503906,256.0856069922447 213.90480041503906,212.88559478521347 "/>
  <polygon id="svg_53" fill="#939900" points="194.91481018066406,233.07559722661972 213.90480041503906,233.07559722661972 220.8748016357422,175.72557586431503 194.91481018066406,175.72557586431503 194.91481018066406,233.07559722661972 "/>
  <polygon fill="#5c6000" id="svg_54" opacity="0.1" points="194.91481018066406,233.07559722661972 213.90480041503906,233.07559722661972 220.8748016357422,175.72557586431503 194.91481018066406,175.72557586431503 194.91481018066406,233.07559722661972 "/>
  <path id="svg_55" fill="#fbbebe" d="m157.82518,189.30594l4.1,-0.69l9.42,-1.6s28.29,-6.38 34.13,-6.9a36.47,36.47 0 0 0 10.24,-2.92c1.53,-0.66 2.5,-1.16 2.5,-1.16l-10.19,-18.61l-15.81,-11.72s-10,-2.13 -14.23,-7.95a9.37,9.37 0 0 1 -1.31,-8.88c2.58,-8 -15.41,7.65 -15.41,7.65s0.17,3.75 0,8.53c0,0.94 -0.09,1.92 -0.16,2.92c0,0.66 -0.09,1.32 -0.16,2c-0.44,4.75 -1.34,9.64 -3.12,12.56c-4.35,7.14 0,26.77 0,26.77z"/>
  <path id="svg_56" opacity="0.1" d="m161.26518,145.45594l0.4,0c0.72,0 1.3,-1.53 2,-1.6c5.63,-0.54 10.77,-1.72 14.34,-5.71a9.38,9.38 0 0 1 -1.31,-8.87c2.58,-8 -15.41,7.64 -15.41,7.64s0.19,3.76 -0.02,8.54z"/>
  <path id="svg_57" fill="#fbbebe" d="m139.36518,122.77594a21.91,21.91 0 0 0 21.92,21.92c0.72,0 1.43,0 2.14,-0.1a21.92,21.92 0 1 0 -24.06,-21.82z"/>
  <path id="svg_58" fill="#3f3d56" d="m132.63518,89.50594c-0.72,1.86 -0.5,3.94 -0.79,5.91c-1.07,7.11 -8.3,11.37 -14.84,14.35s-13.92,6.51 -16,13.38c-2.28,7.43 2.7,14.88 6.16,21.85c6.74,13.58 7.7,30.9 -1,43.32c-7.73,11 -21.2,16.22 -33.88,20.8a33.4,33.4 0 0 0 21.45,7.14c-2.91,8.47 -13.26,11.28 -22.08,12.84c4.63,4.46 11.26,6.08 17.61,7.06c4.63,0.72 9.38,1.19 14,0.26s9,-3.44 11.38,-7.5c2,-3.47 2.68,-8.2 6.29,-9.95a11.38,11.38 0 0 1 5.13,-0.75l15,0.16c4.67,0 10.2,-0.36 12.61,-4.35a12,12 0 0 0 1.36,-5.52c0.65,-9.84 -1.24,-20.24 2.81,-29.22c1.22,-2.71 -6.61,-7 -5.79,-9.87c2.82,-9.87 3.53,-17.64 3.5,-27.91c0,-7.95 5.17,-14.8 9.44,-21.51s7.84,-15.18 4.47,-22.38c-3.8,-8.03 -32.34,-19.7 -36.83,-8.11z"/>
  <path id="svg_59" fill="#fbbebe" d="m152.60518,455.66594l3.82,2.53l0.59,0.39l0.11,0.07l4.53,3l10.58,1.78l9.3,-0.64s2.68,-5.6 -1.53,-5.47a8.76,8.76 0 0 1 -3.84,-1.11l-0.58,-0.29l0,0c-0.61,-0.32 -1.22,-0.68 -1.82,-1.06l0,0c-1.25,-0.79 -2.43,-1.65 -3.38,-2.38c-1.4,-1.08 -2.33,-1.9 -2.33,-1.9l-15.45,5.08z"/>
  <path id="svg_60" opacity="0.1" d="m156.47518,458.19594l0.59,0.39l0.11,0.07l4.53,3l10.58,1.78l9.3,-0.64s2.68,-5.6 -1.53,-5.47a8.76,8.76 0 0 1 -3.84,-1.11c0.74,0.58 1.36,1.21 1.42,1.74c0.17,1.43 -6.88,4 -6.88,4l-9.94,-2.63s-1.69,-0.48 -4,-1.08l-0.22,-0.06l-0.12,0.01z"/>
  <path id="svg_61" fill="#3f3d56" d="m139.47518,460.63594s8.15,1.78 13.63,1.27s14.92,4.21 14.92,4.21s3.19,1.5 13,2.14s9.81,-4.34 9.81,-4.34c-1.12,-6.77 -16.62,-9 -17.1,-9.1l0,0l0,0l0,0c0.19,0.1 1,0.51 1.82,1.06l0,0c1.1,0.72 2.29,1.66 2.38,2.42c0.17,1.42 -6.88,4 -6.88,4l-9.94,-2.62s-1.69,-0.49 -4,-1.09l-0.22,0a85.26,85.26 0 0 0 -10.42,-2.15c-4.28,-0.46 -6.47,3.18 -6.92,4a1.19,1.19 0 0 0 -0.08,0.2z"/>
  <path id="svg_62" fill="#fbbebe" d="m11.01518,280.80594l4.33,3.32s1.26,-0.06 3.14,-0.12l0.6,0c2.69,-0.1 6.4,-0.2 9.55,-0.2a30.32,30.32 0 0 1 6.09,0.34c2.16,0.76 6,-12.36 6,-12.36l-4.34,-1l-1.44,-0.34l-1,-0.24l-3.53,-0.83l-10.7,1.22l-7.52,4.84l-1.18,5.37z"/>
  <path id="svg_63" opacity="0.1" d="m11.01518,280.80594l4.33,3.32s1.26,-0.06 3.14,-0.12a3.79,3.79 0 0 1 -2,-1.79c-2.8,-7.77 11.09,-11.09 11.09,-11.09l6.47,-0.28l1.26,-0.06l1,0l-1.44,-0.34l-1,-0.24l-3.53,-0.83l-10.7,1.22l-7.52,4.84l-1.1,5.37z"/>
  <path id="svg_64" fill="#3f3d56" d="m2.47518,284.31594c2.62,2.42 19.78,0 20.5,-0.06a10.8,10.8 0 0 1 -3.89,-0.27a4.29,4.29 0 0 1 -3,-2.15c-2.8,-7.78 11.09,-11.09 11.09,-11.09l6.47,-0.28l1.25,-0.06l15.73,-0.68l0.76,-4.33s-5.11,0.48 -13.13,1.12c-4.51,0.37 -10,0.78 -15.93,1.17c-16.57,1.1 -20.51,11.85 -20.51,11.85s-2.01,2.3 0.66,4.78z"/>
  <path id="svg_65" fill="#fbbebe" d="m194.92518,96.61594a4.43,4.43 0 0 0 0.38,0.68l3.82,5.6l9.94,1l0.11,-3.94l1.67,-59.28s6.88,-39.76 -6.12,-37.47s-4.84,37.47 -4.84,37.47s-1.48,17.84 -2.52,23.2c-1.01,5.18 -5.54,26.24 -2.44,32.74z"/>
  <path id="svg_66" fill="#fbbebe" d="m172.61518,243.85594l2.83,4.84l6.33,10.83s11.48,4.21 14.42,1c1.61,-1.75 3.35,-7.86 4.57,-13c1,-4.16 1.67,-7.67 1.67,-7.67l-29.82,4z"/>
  <path id="svg_67" opacity="0.1" d="m172.61518,243.85594l2.83,4.84a3.33,3.33 0 0 0 0.48,-0.51c3.2,-4.08 17.29,-0.87 24.84,-0.61c1,-4.16 1.67,-7.67 1.67,-7.67l-29.82,3.95z"/>
  <path id="svg_68" opacity="0.1" d="m28.63518,283.78594a30.32,30.32 0 0 1 6.09,0.34c2.16,0.76 6,-12.36 6,-12.36l-5.78,-1.36l15.73,-0.68l0.76,-4.33s-5.11,0.48 -13.13,1.12a16.5,16.5 0 0 0 -4.37,3.65l-0.24,0.3c-3.35,4.11 -4.59,9.41 -5.06,13.32z"/>
  <path id="svg_69" opacity="0.1" d="m152.60518,455.66594l4.41,2.92c6.58,-1.19 12.59,-3.06 13.3,-6a1,1 0 0 0 0,-0.14c-1.4,-1.08 -2.33,-1.9 -2.33,-1.9l-15.38,5.12z"/>
  <path id="svg_70" opacity="0.1" d="m139.56518,460.46594a152.62,152.62 0 0 0 17.34,-1.86a85.26,85.26 0 0 0 -10.43,-2.17c-4.27,-0.46 -6.46,3.18 -6.91,4.03z"/>
  <path id="svg_71" fill="#3f3d56" d="m29.11518,288.83594c0,3.19 8.79,5.23 8.79,5.23l26.77,23.83s16.82,7.52 27.52,18.35s20.14,1.53 20.14,1.53c11.34,-2.8 44,-42.31 44,-42.31s0.76,45.12 2.29,48.43s-0.51,12.36 -1.4,16.19a45,45 0 0 0 -0.64,9.68s-12.23,46.77 -11.21,50.85s-6.63,23.2 -6.63,23.2l0,15.93s29.95,-1.15 31.6,-7.9s-7.51,-9.69 -7.51,-9.69l0,-1.66c6,-3.06 7.13,-24.08 7.13,-24.08s8.93,-26 10.2,-30.33s0,-10.84 0,-10.84l0.89,-5.6s1.91,-3.83 1.91,-4.59a11.34,11.34 0 0 1 2.17,-5.35c1.4,-1.66 -1.53,-5.61 -1.53,-5.61l2.55,-6.63l0,-7.26l6,-26.38s6.25,-30.72 4.08,-40.79s2.55,-15.16 2.55,-15.16c-10.23,5.36 -15.39,-6.57 -17.08,-11.7c-0.43,-1.32 -0.64,-2.2 -0.64,-2.2s-14.05,-5.18 -27.13,-3.94a31.23,31.23 0 0 0 -7.79,1.65c-14.53,5.23 -16.82,26.89 -16.82,26.89l-12.87,19.63c-6.63,17.46 -16.57,19.24 -16.57,19.24s-23.32,-15.67 -24,-16.44s-9.56,-4.59 -9.56,-4.59a10.1,10.1 0 0 0 -4.59,-4.2c-3.06,-1.28 -3.31,-6 -3.31,-6c-0.38,-11.09 -6.88,-12 -6.88,-12c-22.56,-1.88 -22.43,21.44 -22.43,24.62z"/>
  <rect transform="rotate(-180 852.255 1294.43)" id="svg_72" fill="#6d7501" height="42.69" width="13.76" y="1273.08933" x="845.3752"/>
  <rect transform="rotate(-180 852.255 1294.43)" stroke="#00ff7f" id="svg_73" opacity="0.1" height="42.69" width="13.76" y="1273.08933" x="845.3752"/>
  <path id="svg_74" opacity="0.1" d="m194.91518,96.52594a0.62,0.62 0 0 0 0,0.09a4.43,4.43 0 0 0 0.38,0.68l3.82,5.6l9.94,1l0.11,-3.94c-3.1,-0.24 -10.16,-1.09 -14.25,-3.43z"/>
  <path id="svg_75" fill="#b5c401" d="m195.30518,97.29594s0.51,22.42 -5.1,25.48s-7.79,19 -7.79,19s17,11.18 20.79,16.1s12.49,16.64 10.7,19.44s4.34,15.55 4.34,15.55s-11.22,22.94 -8.67,31.61s2.8,31.6 2.8,31.6l4.85,0s-1.53,-18.86 -1.53,-26.51s5.09,-34.92 5.09,-34.92s2.3,-26.76 0,-27.52s-15.8,-11.47 -16.82,-16.32s7.14,-50 7.14,-50s-10.45,-0.45 -15.8,-3.51z"/>
  <path id="svg_76" opacity="0.1" d="m158.59518,179.87594a21.82,21.82 0 0 0 3.33,8.74l9.42,-1.6s28.29,-6.38 34.13,-6.9a36.47,36.47 0 0 0 10.24,-2.92a45.16,45.16 0 0 0 -12.65,-20.75l-3.59,-3.33a60.15,60.15 0 0 0 -18.1,-11.57c0.42,0.35 30.1,25.69 23.6,30.66s-24,-7.13 -24,-7.13l-19.9,-17.1l-0.72,-0.62l-1.15,1.79a16.69,16.69 0 0 1 1.71,0.82a29.28,29.28 0 0 1 14,17.4c4.09,13.75 -16.32,12.51 -16.32,12.51z"/>
  <path id="svg_77" fill="#444053" d="m152.47518,243.59594s18.86,10.45 23.44,4.59c1,-1.29 3.11,-1.85 5.74,-2c-0.43,-1.32 -0.64,-2.2 -0.64,-2.2s-14.05,-5.18 -27.13,-3.94c-0.86,2.16 -1.41,3.55 -1.41,3.55z"/>
  <path id="svg_78" fill="#e8e8f0" d="m161.15518,147.37594l20.62,17.74s17.43,12.14 24,7.13s-23.61,-30.67 -23.61,-30.67l0,0a61,61 0 0 1 18.09,11.54l3.59,3.33c9.44,8.75 11.57,8.75 11.89,21.61c0.08,3.17 -1,7.72 -1.83,8.54c-3.06,3 -5.2,24.79 -4.73,27.34s-5.7,24.56 -3.7,30.68s-25,-3.06 -29.57,2.81s-23.43,-4.59 -23.43,-4.59s10.45,-26.77 13,-28.55s5.61,-15.55 0,-21.92s-6.11,-12.49 -6.11,-12.49s20.4,1.26 16.31,-12.49a28.86,28.86 0 0 0 -15.68,-18.22l1.16,-1.79z"/>
  <path id="svg_79" opacity="0.1" d="m188.67518,192.49594s-7.91,14.91 -18.14,18.78c-0.33,0.12 -0.65,0.23 -1,0.33c-10.68,3.25 19.94,-14.49 19.14,-19.11z"/>
  <path id="svg_80" fill="#fbbebe" d="m78.05518,60.58594s3.82,9.69 6.88,13s25.74,36.45 25.74,36.45l1.92,4l1.65,3.41l14.53,-1.53l1,-5.86l-0.56,-0.68c-1.46,-1.75 -5.44,-6.45 -8.11,-8.5c-3.31,-2.54 -9.94,-10.95 -9.94,-10.95s-20.64,-21.42 -22.17,-27.28s-22.18,-41 -26.76,-34.92s15.82,32.86 15.82,32.86z"/>
  <g id="svg_81" opacity="0.1">
   <path id="svg_82" d="m120.21518,218.21594a11.39,11.39 0 0 0 -5.13,0.74c-3.6,1.75 -4.28,6.48 -6.28,9.95c-2.34,4.06 -6.8,6.57 -11.39,7.5a25.44,25.44 0 0 1 -2.76,0.38a31.34,31.34 0 0 0 8.76,-0.38c4.59,-0.93 9.05,-3.44 11.39,-7.5c2,-3.47 2.68,-8.2 6.28,-9.95a8,8 0 0 1 3,-0.7l-3.87,-0.04z"/>
   <path id="svg_83" d="m155.73518,141.50594c0,-7.95 5.17,-14.8 9.43,-21.51s7.84,-15.18 4.47,-22.38c-2.88,-6.15 -20.24,-14.4 -30.26,-12.77c9.81,1.27 21.9,7.73 24.26,12.77c3.37,7.2 -0.21,15.67 -4.47,22.38s-9.45,13.56 -9.43,21.51c0,10.26 -0.69,18 -3.51,27.91c-0.81,2.85 7,7.16 5.8,9.86c-4.06,9 -2.16,19.38 -2.81,29.22a12.15,12.15 0 0 1 -1.37,5.52c-2,3.29 -6.1,4.14 -10.09,4.32l3.49,0c4.66,0 10.19,-0.36 12.6,-4.35a12.15,12.15 0 0 0 1.37,-5.52c0.65,-9.84 -1.25,-20.23 2.81,-29.22c1.22,-2.7 -6.61,-7 -5.8,-9.86c2.82,-9.84 3.53,-17.62 3.51,-27.88z"/>
  </g>
  <path id="svg_84" opacity="0.1" d="m112.59518,114.01594l1.65,3.41l14.53,-1.53l1,-5.86l-0.56,-0.68c-1.55,0.76 -13.16,6.35 -16.62,4.66z"/>
  <path id="svg_85" opacity="0.1" d="m166.24518,152.34594s-3.57,-5.6 -5.61,-4.08s-2.83,-4.59 -4,-3.57s-4.58,3.86 -6,-0.11c-1.11,-3.16 -13.19,-23.15 -18.09,-31.19c-1.26,-2.08 -2.05,-3.36 -2.05,-3.36s-13.76,6.88 -17.07,4.59l0,4.84l2.8,0.26l15,28s4.72,7.51 4.4,10.13s6.05,14.09 7.07,14.85s12,13.51 12,13.51s5.61,27.53 0.76,35.18s-13.25,13.25 -13.25,13.25s-2.53,7.39 -2.16,8.16s-2.94,4.08 -1.41,5.1s3.57,8.15 3.57,8.15s7.14,-11.47 11,-13.25s8.8,-25.24 8.8,-25.24s1.41,-13.82 1.52,-22.74s-0.34,-42.48 2.72,-42.48z"/>
  <path id="svg_86" fill="#b5c401" d="m165.47518,152.34594s-3.56,-5.6 -5.6,-4.08s-2.84,-4.59 -4,-3.57s-4.57,3.86 -6,-0.11c-1.12,-3.16 -13.2,-23.15 -18.09,-31.19l-2.05,-3.36s-13.76,6.88 -17.08,4.59l0,4.84l2.81,0.26l15,28s4.73,7.51 4.4,10.13s6,14.09 7.07,14.85s12,13.51 12,13.51s5.61,27.53 0.77,35.18a46.88,46.88 0 0 1 -9.23,10.22a17.84,17.84 0 0 0 -6,9.62a3.8,3.8 0 0 0 -0.18,1.6c0.37,0.76 -2.94,4.08 -1.41,5.1s3.59,8.18 3.59,8.18s7.14,-11.47 11,-13.25s8.81,-25.24 8.81,-25.24s1.4,-13.82 1.52,-22.74s-0.33,-42.54 2.67,-42.54z"/>
  <path id="svg_87" opacity="0.1" d="m130.55518,268.32594s10.71,2 15,5.09s-16.31,-4.84 -16.31,-4.84l1.31,-0.25z"/>
  <path id="svg_88" opacity="0.1" d="m156.30518,295.46594s11.17,9.31 9.17,17.72s-7.16,29.57 -7.16,29.57l-2.01,-47.29z"/>
  <path id="svg_89" opacity="0.1" d="m58.61518,277.56594s-15.74,1.72 -14.72,3.76s14.72,-1.88 14.72,-1.88l0,-1.88z"/>
  <path id="svg_90" opacity="0.1" d="m179.47518,354.98594s1,1.27 -4.84,0s-1.53,-5.19 -1.53,-5.19l6.37,5.19z"/>
  <path id="svg_91" opacity="0.1" d="m177.47518,372.57594s-8,1.27 -12.29,0s12.29,0 12.29,0z"/>
  <path id="svg_92" opacity="0.1" d="m161.01518,441.39594s-1.4,-1.53 -8.41,1.27s-9.81,2.93 -11.85,2s20.26,-3.27 20.26,-3.27z"/>
  <path id="svg_93" opacity="0.1" d="m168.79518,275.39594l-9.94,13.83s5.35,-12.11 9.94,-13.83z"/>
  <path id="svg_94" opacity="0.1" d="m149.47518,148.26594s-0.43,4.59 -6.84,6.38s-7.63,3.24 -7.63,3.24"/>
  <path id="svg_95" opacity="0.1" d="m132.81518,114.99594s-8.46,6 -17.29,4.73"/>
  <path id="svg_96" opacity="0.1" d="m139.25518,243.46594s2.47,1.55 8.4,-5.23"/>
  <path id="svg_97" opacity="0.1" d="m200.84518,171.57594c0.24,-1.24 -0.62,-2.39 -1.43,-3.36l-1.66,-2a7.7,7.7 0 0 0 -1.09,-1.12c-1,-0.77 -2.28,-1 -3.32,-1.69"/>
 </g>
</svg>